<svg xmlns="http://www.w3.org/2000/svg" width="52.415" height="40.759" viewBox="0 0 52.415 40.759">
  <path id="eb_icon_home" d="M25.511,12.828,8.735,26.645V41.557a1.456,1.456,0,0,0,1.456,1.456l10.2-.026a1.456,1.456,0,0,0,1.449-1.456V32.822a1.456,1.456,0,0,1,1.456-1.456h5.823a1.456,1.456,0,0,1,1.456,1.456v8.7a1.456,1.456,0,0,0,1.456,1.46l10.193.028a1.456,1.456,0,0,0,1.456-1.456V26.635L26.9,12.828A1.109,1.109,0,0,0,25.511,12.828Zm26.5,9.391L44.4,15.949V3.345a1.092,1.092,0,0,0-1.092-1.092h-5.1a1.092,1.092,0,0,0-1.092,1.092V9.952l-8.146-6.7a4.368,4.368,0,0,0-5.55,0L.4,22.219A1.092,1.092,0,0,0,.25,23.757l2.32,2.821a1.092,1.092,0,0,0,1.539.148L25.511,9.1a1.109,1.109,0,0,1,1.392,0l21.4,17.629a1.092,1.092,0,0,0,1.538-.146l2.32-2.821a1.092,1.092,0,0,0-.155-1.54Z" transform="translate(0.001 -2.254)" fill="#fff"/>
</svg>
