<svg xmlns="http://www.w3.org/2000/svg" xmlns:xlink="http://www.w3.org/1999/xlink" width="1781.339" height="398.276" viewBox="0 0 1781.339 398.276">
  <defs>
    <linearGradient id="linear-gradient" x1="0.089" y1="1.046" x2="0.682" y2="0.297" gradientUnits="objectBoundingBox">
      <stop offset="0" stop-color="#0069dd"/>
      <stop offset="0.525" stop-color="#7912d6"/>
      <stop offset="1" stop-color="#e81186"/>
    </linearGradient>
    <linearGradient id="linear-gradient-2" x1="-0.863" y1="2.826" x2="0.745" y2="-0.133" xlink:href="#linear-gradient"/>
    <linearGradient id="linear-gradient-3" x1="-0.332" y1="0.337" x2="0.614" y2="0.522" gradientUnits="objectBoundingBox">
      <stop offset="0"/>
      <stop offset="1" stop-opacity="0"/>
    </linearGradient>
    <linearGradient id="linear-gradient-4" x1="-4.995" y1="24.951" x2="-4.055" y2="25.134" xlink:href="#linear-gradient-3"/>
    <linearGradient id="linear-gradient-5" x1="1.158" y1="0.916" x2="0.211" y2="0.229" xlink:href="#linear-gradient-3"/>
    <linearGradient id="linear-gradient-6" x1="0.271" y1="1.233" x2="0.663" y2="0.095" xlink:href="#linear-gradient-3"/>
    <linearGradient id="linear-gradient-7" x1="0.899" y1="1.32" x2="0.254" y2="0.271" xlink:href="#linear-gradient-3"/>
    <linearGradient id="linear-gradient-8" x1="0.183" y1="1.33" x2="0.654" y2="0.198" xlink:href="#linear-gradient-3"/>
    <linearGradient id="linear-gradient-9" x1="0.739" y1="1.193" x2="0.431" y2="0.343" xlink:href="#linear-gradient-3"/>
    <linearGradient id="linear-gradient-10" x1="0.227" y1="-0.292" x2="0.607" y2="0.714" xlink:href="#linear-gradient-3"/>
    <linearGradient id="linear-gradient-11" x1="-0.037" y1="1.267" x2="0.648" y2="0.286" xlink:href="#linear-gradient-3"/>
    <linearGradient id="linear-gradient-12" x1="0.944" y1="-0.273" x2="0.311" y2="0.766" xlink:href="#linear-gradient-3"/>
    <linearGradient id="linear-gradient-13" x1="1.3" y1="0.195" x2="0.289" y2="0.648" xlink:href="#linear-gradient-3"/>
    <linearGradient id="linear-gradient-14" x1="1.09" y1="0.434" x2="0.259" y2="0.53" xlink:href="#linear-gradient-3"/>
    <linearGradient id="linear-gradient-15" x1="-0.134" y1="0.494" x2="0.531" y2="0.501" xlink:href="#linear-gradient-3"/>
  </defs>
  <g id="everest-backup-logo" transform="translate(-172.531 -28.9)">
    <g id="Group_4" data-name="Group 4" transform="translate(172.531 28.9)">
      <g id="Group_1" data-name="Group 1">
        <path id="Path_1" data-name="Path 1" d="M870.668,224.287a13.736,13.736,0,0,0-17.613,8.189h0l-3.908,10.691A111.821,111.821,0,0,0,786,196.739c-.05-.637-.038-1.292-.1-1.923-.044-.422-.145-.826-.189-1.248-.366-3.209-.813-6.392-1.456-9.506-.1-.5-.271-.983-.385-1.488-.662-3.007-1.387-5.995-2.295-8.907-.025-.082-.063-.158-.088-.24-1.04-3.31-2.225-6.556-3.568-9.714l-.038-.076a108.13,108.13,0,0,0-91.645-65.484q-2.686-3.206-5.51-6.279c-.845-.927-1.689-1.853-2.553-2.761-2.906-3.057-5.894-6.026-9-8.888-.214-.2-.416-.41-.63-.605q-5.39-4.936-11.151-9.443c-.164-.132-.34-.252-.5-.378q-5.418-4.227-11.145-8.05c-.429-.29-.864-.574-1.3-.864A192.346,192.346,0,0,0,538.072,28.9c-73.673.006-137.531,41.259-170.166,101.857-.082.145-.164.29-.24.435q-3.886,7.262-7.161,14.883c-.258.6-.548,1.179-.8,1.778-1.935,4.64-3.663,9.38-5.245,14.2-.328.99-.719,1.948-1.034,2.95-.618,2-1.109,4.053-1.664,6.077A41.8,41.8,0,0,0,319.991,206.5c-1.6.662-3.165,1.368-4.728,2.1-.977.46-1.954.927-2.919,1.412q-3.678,1.863-7.186,4c-.605.366-1.236.7-1.834,1.084-3.026,1.916-5.963,3.959-8.775,6.153l-.113.095c-2.73,2.131-5.32,4.419-7.829,6.8-.473.448-.927.914-1.393,1.374q-3.215,3.158-6.165,6.575c-.372.435-.756.864-1.122,1.3a108.511,108.511,0,0,0,79.516,178.052c.347.025.649.2,1,.2H451.01a41.606,41.606,0,0,0,57.51,0h93.429a13.736,13.736,0,1,0,0-27.472H521.424c.069-.99.3-1.942.3-2.95a41.754,41.754,0,0,0-7.344-23.684l30.41-41.088h0l33.322-45.016a41.538,41.538,0,0,0,6.241.63,41.864,41.864,0,0,0,14.127-81.307,80.345,80.345,0,0,1,22.776-45.93c.391-.385.819-.725,1.217-1.1h0a80.439,80.439,0,0,1,105.747-5.157,82.245,82.245,0,0,1,7.149,6.266,80.4,80.4,0,0,1,22.448,43.793c-.593-.013-1.16-.113-1.759-.113a111.558,111.558,0,0,0-106.238,77.581,13.736,13.736,0,0,0,26.167,8.365,83.907,83.907,0,0,1,149.375-21.7l-13.736-5.018a13.734,13.734,0,0,0-9.424,25.8l43.251,15.8a13.737,13.737,0,0,0,17.613-8.189l15.8-43.257A13.722,13.722,0,0,0,870.668,224.287Zm-471.211,5.018,143.992,13.944a41.755,41.755,0,0,0,10.111,19.2l-61.368,82.908a40.72,40.72,0,0,0-45.917,14.833c-.681-.454-1.425-.813-2.093-1.273-4.375-3.038-8.516-6.373-12.57-9.809-.782-.656-1.633-1.236-2.408-1.91a170.281,170.281,0,0,1-25.549-28.178h0A165.72,165.72,0,0,1,393.3,302.656c-2.421-4.343-4.577-8.844-6.625-13.408-.548-1.236-1.091-2.477-1.614-3.726q-2.458-5.863-4.469-11.946c-.87-2.673-1.614-5.4-2.351-8.126-.845-3.057-1.721-6.1-2.389-9.229-.334-1.607-.473-3.284-.756-4.9A41.942,41.942,0,0,0,399.457,229.305Zm80.3,170.411a14.493,14.493,0,1,1,14.492-14.486A14.509,14.509,0,0,1,479.762,399.716ZM361.42,197.326a14.493,14.493,0,1,1-14.492,14.5A14.517,14.517,0,0,1,361.42,197.326ZM280.126,306.88a80.967,80.967,0,0,1,6.783-32.477h0a81.62,81.62,0,0,1,7.363-13.339c.006-.013.019-.019.025-.031a81.784,81.784,0,0,1,9.645-11.662A78.581,78.581,0,0,1,325.992,234.1a41.886,41.886,0,0,0,20.973,16.957c.2,1.317.429,2.622.649,3.927.17.977.3,1.96.485,2.931a192.35,192.35,0,0,0,4.5,18.722c.265.908.548,1.809.826,2.711a191.11,191.11,0,0,0,6.72,18.5c.095.214.2.422.29.637A193.3,193.3,0,0,0,395.8,352.967c.265.29.53.58.8.87a193.971,193.971,0,0,0,14.921,14.411c.492.429,1,.838,1.488,1.261a192.773,192.773,0,0,0,16.207,12.419c.53.359,1.078.693,1.614,1.046,2.383,1.595,4.759,3.2,7.218,4.69.013.17.038.34.05.511H361.42a81.291,81.291,0,0,1-81.294-81.294Zm304.229-58.266a14.493,14.493,0,1,1,14.492-14.5A14.508,14.508,0,0,1,584.355,248.614Zm16.321-117.919-.013.013a108.483,108.483,0,0,0-17.922,24.6c-.044.082-.076.164-.12.246-1.544,2.925-2.969,5.919-4.249,9-.164.4-.284.82-.448,1.223-1.116,2.78-2.169,5.6-3.051,8.491-.284.914-.46,1.872-.719,2.8-.674,2.433-1.355,4.854-1.86,7.35-.34,1.677-.523,3.41-.782,5.119s-.6,3.366-.775,5.087a41.854,41.854,0,0,0-24.074,21.351l-144.585-14A41.863,41.863,0,0,0,379.8,174.279c.9-2.975,1.7-5.995,2.755-8.895q1.447-3.9,3.076-7.7c1.242-2.95,2.667-5.8,4.072-8.655a174.61,174.61,0,0,1,12.62-21.534h0a164.815,164.815,0,0,1,189.3-62.124,169.244,169.244,0,0,1,16.812,6.821c.643.3,1.286.618,1.929.927,4.709,2.269,9.267,4.791,13.717,7.476,1.028.624,2.068,1.223,3.076,1.866,4.034,2.559,7.9,5.339,11.694,8.226,1.084.832,2.225,1.6,3.291,2.458,3.19,2.559,6.171,5.358,9.159,8.151a107.918,107.918,0,0,0-50.62,29.4Z" transform="translate(-252.66 -28.9)" fill="url(#linear-gradient)"/>
        <path id="Path_2" data-name="Path 2" d="M1075.526,488.5a13.742,13.742,0,0,0-17.266,8.9,83.913,83.913,0,0,1-149.4,21.66l11.927,3.555a13.736,13.736,0,1,0,7.855-26.325l-44.133-13.162a13.728,13.728,0,0,0-17.083,9.235l-13.162,44.114a13.736,13.736,0,1,0,26.325,7.855h0l3.814-12.784c19.794,31.027,54.251,51.767,93.8,51.78a111.537,111.537,0,0,0,106.232-77.569A13.741,13.741,0,0,0,1075.526,488.5Z" transform="translate(-474.809 -196.579)" fill="url(#linear-gradient-2)"/>
      </g>
      <path id="Path_3" data-name="Path 3" d="M485.53,330.78c4.047-7.905,4.879-18.855,2.635-27.34l56.463,5.465-2.3,27.371Z" transform="translate(-338.733 -130.375)" opacity="0.42" fill="url(#linear-gradient-3)"/>
      <path id="Path_4" data-name="Path 4" d="M684.528,322.407c-4.047,7.905-5.535,18.855-3.291,27.34l-55.808-5.465,2.3-27.371Z" transform="translate(-390.442 -135.353)" opacity="0.42" fill="url(#linear-gradient-4)"/>
      <g id="Group_3" data-name="Group 3" transform="translate(12.986 11.939)">
        <g id="Group_2" data-name="Group 2" opacity="0.76">
          <path id="Path_5" data-name="Path 5" d="M471.706,523.068c.265.29.53.586.8.87a193.967,193.967,0,0,0,14.921,14.411c.492.429,1,.838,1.488,1.261a191.76,191.76,0,0,0,16.207,12.419c.53.359,1.078.693,1.614,1.046,2.313,1.544,4.8,2.843,7.18,4.287-.031-.693-.208-1.343-.208-2.042a41.6,41.6,0,0,1,8.453-25.026c-.674-.454-1.406-.838-2.074-1.3-4.388-3.026-8.5-6.392-12.57-9.809-.782-.662-1.639-1.229-2.408-1.91A166.623,166.623,0,0,1,479.56,489.09l-21.54,17.354A194.563,194.563,0,0,0,471.706,523.068Z" transform="translate(-341.55 -210.934)" opacity="0.42" fill="url(#linear-gradient-5)"/>
          <path id="Path_6" data-name="Path 6" d="M419.576,220.68A41.584,41.584,0,0,1,437.787,225c.908-2.969,1.866-5.907,2.938-8.8.952-2.61,2-5.157,3.076-7.7,1.267-2.938,2.648-5.806,4.072-8.655a165.194,165.194,0,0,1,12.62-21.534l-25.316-11.9q-4.889,7.366-9.109,15.18c-.082.145-.164.29-.24.435-2.6,4.835-4.967,9.815-7.161,14.883-.258.6-.548,1.179-.8,1.778-1.954,4.633-3.656,9.393-5.245,14.2-.322.99-.725,1.948-1.034,2.95-.618,1.979-1.034,4.047-1.589,6.052A41.664,41.664,0,0,1,419.576,220.68Z" transform="translate(-323.801 -91.666)" opacity="0.42" fill="url(#linear-gradient-6)"/>
          <path id="Path_7" data-name="Path 7" d="M790.34,72.362c.006,0,.006.006.013.006a164.212,164.212,0,0,1,16.812,6.821c.649.3,1.286.618,1.929.927q7.054,3.423,13.717,7.476c1.028.624,2.061,1.229,3.076,1.866,4.028,2.572,7.911,5.327,11.694,8.226,1.091.832,2.219,1.6,3.291,2.458,3.2,2.578,6.222,5.333,9.223,8.138a108.069,108.069,0,0,1,26.961-3.524c2.654,0,5.251.208,7.855.4-1.778-2.118-3.568-4.23-5.44-6.272-.845-.927-1.689-1.853-2.553-2.761-2.906-3.051-5.894-6.033-9-8.888-.214-.2-.416-.41-.63-.605q-5.39-4.926-11.151-9.443c-.164-.132-.34-.252-.5-.378q-5.418-4.217-11.145-8.05c-.429-.29-.864-.574-1.3-.864A193.145,193.145,0,0,0,803.565,47.84Z" transform="translate(-464.382 -47.84)" opacity="0.42" fill="url(#linear-gradient-7)"/>
          <path id="Path_8" data-name="Path 8" d="M787.172,190.4A108.868,108.868,0,0,0,769.25,215c-.044.082-.076.164-.12.246-1.544,2.925-2.969,5.926-4.249,9-.164.4-.284.819-.448,1.223-1.116,2.78-2.162,5.6-3.051,8.491-.277.914-.466,1.872-.719,2.8-.675,2.427-1.349,4.854-1.86,7.35-.34,1.677-.523,3.41-.782,5.119-.258,1.689-.586,3.36-.763,5.081a39.2,39.2,0,0,1,27.712.17,80.345,80.345,0,0,1,22.776-45.93c.391-.385.819-.725,1.217-1.1L787.172,190.4C787.178,190.392,787.178,190.4,787.172,190.4Z" transform="translate(-452.155 -100.531)" opacity="0.42" fill="url(#linear-gradient-8)"/>
          <path id="Path_9" data-name="Path 9" d="M1064.73,253.682c-.044-.422-.145-.826-.189-1.248-.365-3.209-.813-6.392-1.456-9.506-.1-.5-.271-.983-.385-1.488-.662-3.007-1.387-5.995-2.295-8.907-.025-.082-.063-.158-.088-.24-1.04-3.31-2.225-6.556-3.568-9.714l-.038-.076a108.412,108.412,0,0,0-23.236-34.343l-26.426,13.282h0a81.347,81.347,0,0,1,7.149,6.266,80.4,80.4,0,0,1,22.448,43.793,110.409,110.409,0,0,1,28.184,4.1C1064.78,254.968,1064.8,254.312,1064.73,253.682Z" transform="translate(-544.481 -99.705)" opacity="0.42" fill="url(#linear-gradient-9)"/>
          <path id="Path_10" data-name="Path 10" d="M416.818,384.07a41.634,41.634,0,0,1-14.278-2.66c.2,1.28.258,2.6.473,3.871.164.977.3,1.96.485,2.931a191.914,191.914,0,0,0,4.5,18.722c.265.908.548,1.809.826,2.711a193.429,193.429,0,0,0,6.72,18.5c.095.214.2.422.29.637a192.406,192.406,0,0,0,9.178,18.571l23.677-14.411h0c-2.421-4.35-4.6-8.825-6.625-13.408-.555-1.236-1.084-2.477-1.614-3.726-1.626-3.921-3.146-7.88-4.469-11.946-.883-2.667-1.6-5.4-2.351-8.126-.826-3.07-1.734-6.1-2.389-9.229-.34-1.607-.593-3.24-.883-4.867A41.582,41.582,0,0,1,416.818,384.07Z" transform="translate(-321.044 -171.133)" opacity="0.42" fill="url(#linear-gradient-10)"/>
          <path id="Path_11" data-name="Path 11" d="M654.833,524.166l29.086-39.292L661.6,468.85,632.65,507.965A41.926,41.926,0,0,1,654.833,524.166Z" transform="translate(-406.097 -203.452)" opacity="0.42" fill="url(#linear-gradient-11)"/>
          <path id="Path_12" data-name="Path 12" d="M712.676,399.37,683.13,439.28l20.765,18.111,33.322-45.016A41.615,41.615,0,0,1,712.676,399.37Z" transform="translate(-424.755 -177.772)" opacity="0.42" fill="url(#linear-gradient-12)"/>
          <path id="Path_13" data-name="Path 13" d="M294.517,378.59a81.617,81.617,0,0,1,7.363-13.339.11.11,0,0,1,.025-.032,82.217,82.217,0,0,1,9.645-11.662A78.672,78.672,0,0,1,333.6,338.29a41.618,41.618,0,0,1-6.531-22.284,40.758,40.758,0,0,1,.53-5.226c-1.582.656-3.171,1.286-4.715,2.011-.977.46-1.954.927-2.919,1.412q-3.678,1.863-7.186,4c-.605.366-1.236.706-1.834,1.084-3.026,1.916-5.963,3.959-8.775,6.153l-.113.095c-2.723,2.131-5.32,4.413-7.829,6.8-.473.448-.927.914-1.393,1.374q-3.215,3.158-6.165,6.575c-.372.435-.756.864-1.122,1.3a109.123,109.123,0,0,0-12.286,18.086Z" transform="translate(-273.26 -145.027)" opacity="0.42" fill="url(#linear-gradient-13)"/>
          <path id="Path_14" data-name="Path 14" d="M499.537,598.85h-76.68a13.736,13.736,0,1,1,0,27.472c-1.343,0-2.648-.151-3.978-.2.347.025.643.2,1,.2h92.565A41.688,41.688,0,0,1,499.537,598.85Z" transform="translate(-327.084 -251.503)" opacity="0.42" fill="url(#linear-gradient-14)"/>
          <path id="Path_15" data-name="Path 15" d="M658.54,626.312h93.429a13.736,13.736,0,0,0,0-27.472H671.444A41.683,41.683,0,0,1,658.54,626.312Z" transform="translate(-415.666 -251.499)" opacity="0.42" fill="url(#linear-gradient-15)"/>
        </g>
      </g>
    </g>
    <g id="Group_8" data-name="Group 8" transform="translate(885.87 92.301)">
      <g id="Group_5" data-name="Group 5" transform="translate(0 0)">
        <path id="Path_16" data-name="Path 16" d="M141.827,844.151V869.56H35.87V732.72H139.292v25.409H67.343v29.723H130.88v24.631H67.343v31.675h74.484Z" transform="translate(-35.87 -730.357)" fill="#24262b"/>
        <path id="Path_17" data-name="Path 17" d="M373.4,732.72l-59.23,136.84H282.883L223.84,732.72h34.217l41.635,97.747,42.233-97.747Z" transform="translate(-83.284 -730.357)" fill="#24262b"/>
        <path id="Path_18" data-name="Path 18" d="M580.267,844.151V869.56H474.31V732.72H577.732v25.409H505.783v29.723H569.32v24.631H505.783v31.675h74.484Z" transform="translate(-146.463 -730.357)" fill="#24262b"/>
        <path id="Path_19" data-name="Path 19" d="M768.306,869.56,741.9,831.439H712.777V869.56H681.11V732.72h59.222q18.182,0,31.6,6.064a46.956,46.956,0,0,1,20.616,17.2q7.212,11.149,7.223,26.4t-7.321,26.3q-7.347,11.026-20.84,16.9l30.7,43.991H768.306Zm-8.016-104.88q-7.448-6.158-21.7-6.154H712.785v47.7H738.59q14.267,0,21.7-6.251c4.965-4.165,7.41-10.042,7.41-17.595C767.708,774.692,765.255,768.784,760.29,764.679Z" transform="translate(-198.627 -730.357)" fill="#24262b"/>
        <path id="Path_20" data-name="Path 20" d="M1015.837,844.151V869.56H909.88V732.72h103.415v25.409H941.353v29.723H1004.9v24.631H941.353v31.675h74.484Z" transform="translate(-256.332 -730.357)" fill="#24262b"/>
        <path id="Path_21" data-name="Path 21" d="M1131.88,866.706q-15.153-4.385-24.34-11.441l10.753-23.846a72.758,72.758,0,0,0,20.922,10.371,78.85,78.85,0,0,0,24.227,3.9q13.5,0,19.95-4.008c4.292-2.655,6.446-6.221,6.446-10.641a10.19,10.19,0,0,0-3.806-8.113,29.133,29.133,0,0,0-9.788-5.19q-5.967-1.952-16.114-4.292a222.812,222.812,0,0,1-25.618-7.433,41.665,41.665,0,0,1-17.1-11.934q-7.156-8.21-7.141-21.894a37.984,37.984,0,0,1,6.461-21.6q6.438-9.668,19.442-15.336t31.772-5.683a105.269,105.269,0,0,1,25.618,3.133,75.635,75.635,0,0,1,21.894,8.988l-9.766,24.04q-18.978-10.734-37.926-10.738-13.291,0-19.651,4.292c-4.232,2.864-6.364,6.648-6.364,11.343s2.453,8.18,7.336,10.454q7.324,3.432,22.388,6.745a222.8,222.8,0,0,1,25.618,7.433,42.4,42.4,0,0,1,17.1,11.725q7.134,8.02,7.141,21.7a37.454,37.454,0,0,1-6.558,21.416q-6.562,9.669-19.651,15.336t-31.87,5.661A111.444,111.444,0,0,1,1131.88,866.706Z" transform="translate(-306.19 -729.56)" fill="#24262b"/>
        <path id="Path_22" data-name="Path 22" d="M1348.446,758.525h-43.8V732.72h119.26v25.805h-43.8V869.56h-31.66V758.525Z" transform="translate(-355.91 -730.357)" fill="#24262b"/>
      </g>
      <g id="Group_7" data-name="Group 7" transform="translate(0 220.261)">
        <g id="Group_6" data-name="Group 6">
          <path id="Path_23" data-name="Path 23" d="M370.133,1022.4a21.127,21.127,0,0,1,4.1,13.205q0,11.093-8.622,17.071t-25.147,5.967H296.8V974.21h41.246q15.445,0,23.7,5.9a18.743,18.743,0,0,1,8.263,16.054,20.281,20.281,0,0,1-11.224,18.567A22.219,22.219,0,0,1,370.133,1022.4Zm-53.913-33.477v19.905h19.419c4.831,0,8.48-.845,10.977-2.527a8.48,8.48,0,0,0,3.739-7.478,8.326,8.326,0,0,0-3.739-7.433c-2.5-1.638-6.147-2.468-10.977-2.468Zm34.434,52.47c2.61-1.69,3.918-4.292,3.918-7.844q0-10.5-15.561-10.5h-22.8v20.878h22.8Q346.728,1043.919,350.654,1041.4Z" transform="translate(-296.8 -972.752)" fill="#24262b"/>
          <path id="Path_24" data-name="Path 24" d="M514,1040.549H474.8l-7.478,18.088H447.3L484.927,974.2h19.307l37.754,84.437H521.478Zm-6.154-14.843L494.461,993.38l-13.385,32.326Z" transform="translate(-334.762 -972.749)" fill="#24262b"/>
          <path id="Path_25" data-name="Path 25" d="M639.69,1053.982a41.867,41.867,0,0,1-16.406-15.561,45.355,45.355,0,0,1,0-45,41.867,41.867,0,0,1,16.406-15.561,52.349,52.349,0,0,1,43.3-1.735,39.692,39.692,0,0,1,14.9,11.089L685.341,998.8a26.938,26.938,0,0,0-21.221-9.893,28.115,28.115,0,0,0-13.991,3.44,24.359,24.359,0,0,0-9.594,9.594,30.172,30.172,0,0,0,0,27.981,24.406,24.406,0,0,0,9.594,9.594,28.193,28.193,0,0,0,13.991,3.44q12.663,0,21.221-10.02l12.547,11.583a38.882,38.882,0,0,1-14.955,11.216,49.542,49.542,0,0,1-19.905,3.866A48.483,48.483,0,0,1,639.69,1053.982Z" transform="translate(-377.646 -972.26)" fill="#24262b"/>
          <path id="Path_26" data-name="Path 26" d="M815.355,1025.469l-11.336,11.822v21.348H784.6V974.21h19.419v39.444l37.388-39.444h21.715l-34.987,37.627,37.036,46.81h-22.8Z" transform="translate(-419.844 -972.752)" fill="#24262b"/>
          <path id="Path_27" data-name="Path 27" d="M951.792,1050.088Q941.72,1040.06,941.72,1021.5V974.22h19.539v46.555q0,22.691,18.813,22.687,9.175,0,13.991-5.489,4.834-5.485,4.831-17.2V974.22h19.3V1021.5q0,18.563-10.072,28.587-10.072,9.994-28.168,10.005T951.792,1050.088Z" transform="translate(-459.476 -972.755)" fill="#24262b"/>
          <path id="Path_28" data-name="Path 28" d="M1161.312,977.949a30.259,30.259,0,0,1,12.727,43.116,28.583,28.583,0,0,1-12.727,10.626,47.582,47.582,0,0,1-19.479,3.672h-17v23.278H1105.29V974.21h36.543A46.838,46.838,0,0,1,1161.312,977.949Zm-7.171,37.687q4.587-3.791,4.584-10.79c0-4.756-1.526-8.382-4.584-10.932q-4.6-3.791-13.385-3.784h-15.927v29.3h15.927Q1149.539,1019.446,1154.141,1015.636Z" transform="translate(-500.735 -972.752)" fill="#24262b"/>
        </g>
      </g>
    </g>
  </g>
</svg>
