<svg xmlns="http://www.w3.org/2000/svg" width="15.751" height="15.75" viewBox="0 0 15.751 15.75">
  <path id="Icon_ionic-ios-key" data-name="Icon ionic-ios-key" d="M14.611,9.815A4.276,4.276,0,0,0,13.2,9.97C11.279,8.339,6.217,4.03,5.831,3.629a.764.764,0,0,0-.568-.254,1.263,1.263,0,0,0-.806.363C4.2,3.988,3.207,5.056,3.4,5.253c.568.583.719.7.954.939.352.36,1.071-.038,1.363.087a.558.558,0,0,1,.394.473,7.075,7.075,0,0,1-.114.9.947.947,0,0,0,.348.719.8.8,0,0,0,.591.329c.341.008.791-.485,1.151-.117s-.235.9-.189,1.287a1.43,1.43,0,0,0,.818.912c.231.049.825-.443,1.162-.367a.79.79,0,0,1,.416.432c.038.174-.261.947-.223,1.121a2.662,2.662,0,0,0,.394.659,4.264,4.264,0,0,0-.356,1.806,4.607,4.607,0,0,0,4.513,4.695,4.6,4.6,0,0,0,4.505-4.695A4.538,4.538,0,0,0,14.611,9.815Zm.878,6.887A1.212,1.212,0,1,1,16.7,15.49,1.21,1.21,0,0,1,15.489,16.7Z" transform="translate(-3.373 -3.375)" fill="#fff"/>
</svg>
